<?xml version="1.0" encoding="UTF-8" standalone="no"?>
<svg xmlns="http://www.w3.org/2000/svg" version="1.2" baseProfile="tiny" viewBox="0.00 0.00 1474.00 1421.00">
<g stroke-width="2.00" fill="none" stroke-linecap="butt">
<path stroke="#72baff" vector-effect="non-scaling-stroke" d="
  M 1303.71 1111.73
  L 1288.54 1122.71
  Q 1288.07 1123.04 1288.62 1123.21
  Q 1289.35 1123.44 1290.00 1123.29"
/>
<path stroke="#51acff" vector-effect="non-scaling-stroke" d="
  M 924.57 577.82
  Q 929.84 593.21 935.73 608.36
  Q 936.70 610.86 937.57 614.44
  C 938.69 619.12 940.87 624.52 941.83 628.03
  C 942.46 630.34 943.38 636.88 945.46 638.00"
/>
<path stroke="#87c6ff" vector-effect="non-scaling-stroke" d="
  M 955.21 907.50
  C 953.91 907.94 953.80 914.46 953.79 915.76
  Q 953.35 1005.01 953.95 1094.25
  C 953.97 1097.46 954.34 1100.94 954.47 1104.26
  Q 954.49 1104.55 954.73 1104.40
  L 954.96 1104.25"
/>
</g>
<path fill="#3ca0fe" d="
  M 1303.71 1111.73
  L 1288.54 1122.71
  Q 1288.07 1123.04 1288.62 1123.21
  Q 1289.35 1123.44 1290.00 1123.29
  C 1285.23 1128.37 1277.43 1132.69 1270.88 1137.02
  C 1270.37 1137.36 1270.39 1137.44 1270.13 1137.96
  Q 1269.96 1138.32 1269.62 1138.55
  L 1263.04 1142.93
  Q 1262.63 1143.20 1262.50 1143.68
  Q 1262.33 1144.34 1261.58 1144.13
  Q 1261.14 1144.01 1260.75 1144.22
  C 1255.34 1147.08 1251.89 1149.85 1247.33 1151.92
  Q 1241.86 1154.39 1241.77 1154.44
  C 1188.74 1182.33 1141.90 1210.58 1084.27 1244.53
  C 1067.03 1254.68 1049.49 1264.22 1032.16 1274.21
  C 1023.82 1279.02 1012.80 1284.51 1003.54 1290.26
  A 1.12 1.12 0.0 0 1 1001.83 1289.35
  C 1001.54 1280.28 1002.05 1269.30 1002.05 1262.55
  C 1001.73 851.80 1002.29 391.44 1001.95 54.06
  Q 1001.95 52.25 1002.89 51.52
  Q 1003.39 51.13 1003.95 51.42
  Q 1007.15 53.11 1016.03 58.24
  Q 1149.09 135.04 1256.30 197.71
  C 1277.84 210.31 1300.05 225.44 1318.31 242.86
  Q 1399.99 320.79 1410.24 435.47
  C 1411.30 447.42 1411.46 464.12 1411.47 479.06
  Q 1411.62 674.81 1411.46 727.25
  C 1411.25 792.84 1412.09 841.35 1410.70 893.44
  C 1408.74 966.96 1377.57 1037.51 1326.50 1090.25
  Q 1319.45 1097.53 1303.71 1111.73
  Z"
/>
<path fill="#65b8ff" d="
  M 924.57 577.82
  Q 929.84 593.21 935.73 608.36
  Q 936.70 610.86 937.57 614.44
  C 938.69 619.12 940.87 624.52 941.83 628.03
  C 942.46 630.34 943.38 636.88 945.46 638.00
  Q 950.79 659.63 952.00 680.50
  C 954.77 728.05 952.94 787.62 953.85 825.94
  Q 954.82 866.71 955.21 907.50
  C 953.91 907.94 953.80 914.46 953.79 915.76
  Q 953.35 1005.01 953.95 1094.25
  C 953.97 1097.46 954.34 1100.94 954.47 1104.26
  Q 954.49 1104.55 954.73 1104.40
  L 954.96 1104.25
  C 954.71 1156.05 955.10 1207.95 954.20 1259.74
  Q 953.71 1287.74 955.26 1315.72
  C 955.34 1317.17 954.87 1318.76 954.50 1320.11
  Q 954.36 1320.61 953.87 1320.80
  Q 947.07 1323.41 940.74 1326.98
  Q 922.99 1337.01 905.23 1347.02
  Q 867.90 1368.09 826.92 1380.31
  Q 817.16 1383.22 807.50 1385.03
  C 779.06 1390.36 749.06 1392.32 720.21 1389.47
  Q 660.30 1383.57 608.08 1356.40
  Q 586.58 1345.21 555.56 1326.45
  Q 552.69 1324.71 542.30 1319.53
  Q 541.82 1319.30 541.76 1318.77
  C 541.07 1312.66 541.44 1306.04 541.45 1300.73
  C 541.75 1130.09 541.99 959.45 541.59 788.82
  Q 541.25 642.41 541.58 594.06
  C 542.18 504.66 541.12 405.30 541.25 341.75
  Q 541.33 307.61 541.22 296.58
  Q 541.21 296.00 541.77 295.86
  Q 543.00 295.55 544.54 296.44
  Q 664.68 365.67 784.66 435.18
  Q 800.52 444.37 801.96 445.23
  C 849.11 473.54 887.93 510.86 915.02 559.01
  C 918.45 565.11 922.13 570.99 924.57 577.82
  Z"
/>
<path fill="#a8d3ff" d="
  M 362.58 669.91
  C 405.99 699.77 442.68 741.36 464.32 789.20
  Q 484.17 833.10 489.73 877.25
  Q 492.19 896.80 492.21 925.56
  Q 492.28 1075.88 492.26 1226.20
  C 492.25 1247.32 493.03 1268.52 493.34 1289.56
  A 0.79 0.78 -75.3 0 1 492.16 1290.25
  C 406.91 1240.39 310.32 1185.25 235.93 1141.83
  C 161.58 1098.43 110.06 1029.40 91.00 945.25
  Q 84.22 915.36 84.06 885.93
  C 83.33 759.88 84.58 633.79 83.34 507.79
  A 0.72 0.72 0.0 0 1 84.41 507.15
  C 98.58 515.01 113.66 524.20 126.35 531.56
  Q 225.76 589.28 325.45 646.53
  Q 344.49 657.46 362.58 669.91
  Z"
/>
<path fill="#3ca0fe" d="
  M 924.57 577.82
  Q 929.76 587.57 933.37 597.92
  C 936.68 607.39 940.80 616.71 941.57 625.26
  Q 941.61 625.71 941.97 626.00
  Q 942.70 626.57 942.40 627.50
  Q 942.26 627.94 942.49 628.34
  Q 945.04 632.74 945.46 638.00
  C 943.38 636.88 942.46 630.34 941.83 628.03
  C 940.87 624.52 938.69 619.12 937.57 614.44
  Q 936.70 610.86 935.73 608.36
  Q 929.84 593.21 924.57 577.82
  Z"
/>
<path fill="#a8d3ff" d="
  M 955.21 907.50
  Q 956.06 1005.88 954.96 1104.25
  L 954.73 1104.40
  Q 954.49 1104.55 954.47 1104.26
  C 954.34 1100.94 953.97 1097.46 953.95 1094.25
  Q 953.35 1005.01 953.79 915.76
  C 953.80 914.46 953.91 907.94 955.21 907.50
  Z"
/>
<path fill="#a8d3ff" d="
  M 1303.71 1111.73
  Q 1297.56 1118.41 1290.00 1123.29
  Q 1289.35 1123.44 1288.62 1123.21
  Q 1288.07 1123.04 1288.54 1122.71
  L 1303.71 1111.73
  Z"
/>
</svg>
